<svg xmlns="http://www.w3.org/2000/svg" xmlns:xlink="http://www.w3.org/1999/xlink" width="60" zoomAndPan="magnify" viewBox="0 0 45 44.999999" height="60" preserveAspectRatio="xMidYMid meet" version="1.0"><defs><clipPath id="3425ea95c7"><path d="M 3.617188 3.617188 L 41.117188 3.617188 L 41.117188 41.117188 L 3.617188 41.117188 Z M 3.617188 3.617188 " clip-rule="nonzero"/></clipPath></defs><g clip-path="url(#3425ea95c7)"><path fill="#1f1d1d" d="M 22.367188 3.617188 C 21.753906 3.617188 21.140625 3.648438 20.53125 3.710938 C 19.917969 3.769531 19.3125 3.859375 18.710938 3.980469 C 18.109375 4.097656 17.511719 4.246094 16.925781 4.425781 C 16.339844 4.605469 15.761719 4.8125 15.195312 5.046875 C 14.625 5.28125 14.070312 5.542969 13.53125 5.832031 C 12.988281 6.121094 12.460938 6.4375 11.953125 6.777344 C 11.441406 7.121094 10.949219 7.484375 10.472656 7.875 C 10 8.265625 9.542969 8.675781 9.109375 9.109375 C 8.675781 9.542969 8.265625 10 7.875 10.472656 C 7.484375 10.949219 7.121094 11.441406 6.777344 11.953125 C 6.4375 12.460938 6.121094 12.988281 5.832031 13.53125 C 5.542969 14.070312 5.28125 14.625 5.046875 15.195312 C 4.8125 15.761719 4.605469 16.339844 4.425781 16.925781 C 4.246094 17.511719 4.097656 18.109375 3.980469 18.710938 C 3.859375 19.3125 3.769531 19.917969 3.710938 20.53125 C 3.648438 21.140625 3.617188 21.753906 3.617188 22.367188 C 3.617188 22.984375 3.648438 23.59375 3.710938 24.207031 C 3.769531 24.816406 3.859375 25.425781 3.980469 26.027344 C 4.097656 26.628906 4.246094 27.222656 4.425781 27.8125 C 4.605469 28.398438 4.8125 28.976562 5.046875 29.542969 C 5.28125 30.113281 5.542969 30.664062 5.832031 31.207031 C 6.121094 31.75 6.4375 32.273438 6.777344 32.785156 C 7.121094 33.296875 7.484375 33.789062 7.875 34.261719 C 8.265625 34.738281 8.675781 35.191406 9.109375 35.628906 C 9.542969 36.0625 10 36.472656 10.472656 36.863281 C 10.949219 37.253906 11.441406 37.617188 11.953125 37.957031 C 12.460938 38.300781 12.988281 38.617188 13.53125 38.90625 C 14.070312 39.195312 14.625 39.457031 15.195312 39.691406 C 15.761719 39.925781 16.339844 40.132812 16.925781 40.3125 C 17.511719 40.488281 18.109375 40.640625 18.710938 40.757812 C 19.3125 40.878906 19.917969 40.96875 20.53125 41.027344 C 21.140625 41.089844 21.753906 41.117188 22.367188 41.117188 C 22.984375 41.117188 23.59375 41.089844 24.207031 41.027344 C 24.816406 40.96875 25.425781 40.878906 26.027344 40.757812 C 26.628906 40.640625 27.222656 40.488281 27.8125 40.3125 C 28.398438 40.132812 28.976562 39.925781 29.542969 39.691406 C 30.113281 39.457031 30.664062 39.195312 31.207031 38.90625 C 31.75 38.617188 32.273438 38.300781 32.785156 37.957031 C 33.296875 37.617188 33.789062 37.253906 34.261719 36.863281 C 34.738281 36.472656 35.191406 36.0625 35.628906 35.628906 C 36.0625 35.191406 36.472656 34.738281 36.863281 34.261719 C 37.253906 33.789062 37.617188 33.296875 37.957031 32.785156 C 38.300781 32.273438 38.617188 31.75 38.90625 31.207031 C 39.195312 30.664062 39.457031 30.113281 39.691406 29.542969 C 39.925781 28.976562 40.132812 28.398438 40.3125 27.8125 C 40.488281 27.222656 40.636719 26.628906 40.757812 26.027344 C 40.878906 25.425781 40.96875 24.816406 41.027344 24.207031 C 41.089844 23.59375 41.117188 22.984375 41.117188 22.367188 C 41.117188 21.753906 41.089844 21.140625 41.027344 20.53125 C 40.96875 19.917969 40.878906 19.3125 40.757812 18.710938 C 40.636719 18.109375 40.488281 17.515625 40.3125 16.925781 C 40.132812 16.339844 39.925781 15.761719 39.691406 15.195312 C 39.457031 14.625 39.195312 14.070312 38.902344 13.53125 C 38.613281 12.988281 38.300781 12.464844 37.957031 11.953125 C 37.617188 11.441406 37.25 10.949219 36.863281 10.472656 C 36.472656 10 36.058594 9.546875 35.625 9.109375 C 35.191406 8.675781 34.738281 8.265625 34.261719 7.875 C 33.789062 7.484375 33.296875 7.121094 32.785156 6.78125 C 32.273438 6.4375 31.75 6.121094 31.207031 5.832031 C 30.664062 5.542969 30.109375 5.28125 29.542969 5.046875 C 28.976562 4.8125 28.398438 4.605469 27.8125 4.425781 C 27.222656 4.25 26.628906 4.097656 26.027344 3.980469 C 25.425781 3.859375 24.816406 3.769531 24.207031 3.710938 C 23.59375 3.648438 22.984375 3.617188 22.367188 3.617188 Z M 13.730469 13.117188 L 31.003906 13.117188 C 31.375 13.117188 31.730469 13.179688 32.078125 13.308594 C 32.421875 13.4375 32.734375 13.621094 33.015625 13.859375 C 33.292969 14.101562 33.523438 14.382812 33.703125 14.707031 C 33.878906 15.027344 33.996094 15.371094 34.050781 15.734375 C 33.804688 15.871094 24.3125 21.34375 23.6875 21.699219 C 23.277344 21.933594 22.839844 22.046875 22.367188 22.046875 C 21.898438 22.046875 21.460938 21.933594 21.050781 21.699219 C 20.433594 21.347656 10.917969 15.929688 10.683594 15.78125 C 10.734375 15.414062 10.847656 15.066406 11.023438 14.738281 C 11.199219 14.410156 11.425781 14.121094 11.707031 13.878906 C 11.988281 13.632812 12.300781 13.445312 12.652344 13.3125 C 13 13.183594 13.359375 13.117188 13.730469 13.117188 Z M 34.085938 28.539062 C 34.085938 28.945312 34.007812 29.339844 33.851562 29.71875 C 33.695312 30.09375 33.472656 30.429688 33.183594 30.71875 C 32.894531 31.003906 32.5625 31.230469 32.183594 31.386719 C 31.808594 31.542969 31.414062 31.621094 31.003906 31.621094 L 13.730469 31.621094 C 13.324219 31.621094 12.929688 31.542969 12.554688 31.386719 C 12.175781 31.230469 11.84375 31.003906 11.554688 30.71875 C 11.265625 30.429688 11.042969 30.09375 10.886719 29.71875 C 10.730469 29.339844 10.652344 28.945312 10.648438 28.539062 L 10.648438 17.183594 L 20.445312 22.773438 C 21.042969 23.113281 21.683594 23.28125 22.371094 23.28125 C 23.058594 23.28125 23.699219 23.113281 24.296875 22.773438 L 34.085938 17.136719 Z M 34.085938 28.539062 " fill-opacity="1" fill-rule="nonzero"/></g></svg>