<svg xmlns="http://www.w3.org/2000/svg" xmlns:xlink="http://www.w3.org/1999/xlink" width="60" zoomAndPan="magnify" viewBox="0 0 45 44.999999" height="60" preserveAspectRatio="xMidYMid meet" version="1.0"><defs><clipPath id="511eb16183"><path d="M 3.863281 3.863281 L 41.363281 3.863281 L 41.363281 41.363281 L 3.863281 41.363281 Z M 3.863281 3.863281 " clip-rule="nonzero"/></clipPath></defs><g clip-path="url(#511eb16183)"><path fill="#1f1d1d" d="M 22.613281 3.863281 C 12.257812 3.863281 3.863281 12.257812 3.863281 22.613281 C 3.863281 32.96875 12.257812 41.363281 22.613281 41.363281 C 32.96875 41.363281 41.363281 32.96875 41.363281 22.613281 C 41.363281 12.257812 32.96875 3.863281 22.613281 3.863281 Z M 32.515625 31.222656 L 31.011719 32.722656 C 30.746094 32.988281 29.960938 33.15625 29.933594 33.15625 C 25.183594 33.199219 20.613281 31.332031 17.253906 27.972656 C 13.882812 24.601562 12.015625 20.011719 12.066406 15.246094 C 12.066406 15.246094 12.238281 14.484375 12.503906 14.21875 L 14.007812 12.714844 C 14.554688 12.164062 15.609375 11.914062 16.351562 12.160156 L 16.667969 12.265625 C 17.402344 12.515625 18.175781 13.328125 18.378906 14.078125 L 19.136719 16.851562 C 19.339844 17.605469 19.066406 18.675781 18.515625 19.226562 L 17.511719 20.226562 C 18.496094 23.871094 21.355469 26.730469 25 27.714844 L 26.003906 26.714844 C 26.554688 26.164062 27.625 25.886719 28.375 26.089844 L 31.148438 26.847656 C 31.898438 27.054688 32.714844 27.824219 32.960938 28.5625 L 33.066406 28.882812 C 33.308594 29.617188 33.0625 30.671875 32.515625 31.222656 Z M 32.515625 31.222656 " fill-opacity="1" fill-rule="nonzero"/></g></svg>